<mxfile host="Electron" agent="Mozilla/5.0 (Windows NT 10.0; Win64; x64) AppleWebKit/537.36 (KHTML, like Gecko) draw.io/26.0.9 Chrome/128.0.6613.186 Electron/32.2.5 Safari/537.36" version="26.0.9">
  <diagram name="Page-1" id="QFZMKR4ZT8mmv3OTTF1F">
    <mxGraphModel dx="1843" dy="887" grid="1" gridSize="10" guides="1" tooltips="1" connect="1" arrows="1" fold="1" page="1" pageScale="1" pageWidth="850" pageHeight="1100" math="0" shadow="0">
      <root>
        <mxCell id="0" />
        <mxCell id="1" parent="0" />
        <mxCell id="Lpb_8n2XbH4QXblP-eYi-6" style="edgeStyle=orthogonalEdgeStyle;rounded=0;orthogonalLoop=1;jettySize=auto;html=1;exitX=0.5;exitY=1;exitDx=0;exitDy=0;" parent="1" source="Lpb_8n2XbH4QXblP-eYi-1" target="Lpb_8n2XbH4QXblP-eYi-2" edge="1">
          <mxGeometry relative="1" as="geometry" />
        </mxCell>
        <mxCell id="Lpb_8n2XbH4QXblP-eYi-1" value="Start" style="ellipse;whiteSpace=wrap;html=1;" parent="1" vertex="1">
          <mxGeometry x="320" width="120" height="60" as="geometry" />
        </mxCell>
        <mxCell id="Lpb_8n2XbH4QXblP-eYi-7" value="" style="edgeStyle=orthogonalEdgeStyle;rounded=0;orthogonalLoop=1;jettySize=auto;html=1;" parent="1" source="Lpb_8n2XbH4QXblP-eYi-2" target="Lpb_8n2XbH4QXblP-eYi-3" edge="1">
          <mxGeometry relative="1" as="geometry" />
        </mxCell>
        <mxCell id="Lpb_8n2XbH4QXblP-eYi-2" value="Display Options" style="rounded=1;whiteSpace=wrap;html=1;" parent="1" vertex="1">
          <mxGeometry x="320" y="100" width="120" height="60" as="geometry" />
        </mxCell>
        <mxCell id="Lpb_8n2XbH4QXblP-eYi-11" value="" style="edgeStyle=orthogonalEdgeStyle;rounded=0;orthogonalLoop=1;jettySize=auto;html=1;" parent="1" source="Lpb_8n2XbH4QXblP-eYi-3" target="Lpb_8n2XbH4QXblP-eYi-10" edge="1">
          <mxGeometry relative="1" as="geometry" />
        </mxCell>
        <mxCell id="Lpb_8n2XbH4QXblP-eYi-15" value="" style="edgeStyle=orthogonalEdgeStyle;rounded=0;orthogonalLoop=1;jettySize=auto;html=1;" parent="1" source="Lpb_8n2XbH4QXblP-eYi-3" target="Lpb_8n2XbH4QXblP-eYi-13" edge="1">
          <mxGeometry relative="1" as="geometry" />
        </mxCell>
        <mxCell id="Lpb_8n2XbH4QXblP-eYi-3" value="Check for input" style="rhombus;whiteSpace=wrap;html=1;" parent="1" vertex="1">
          <mxGeometry x="340" y="210" width="80" height="80" as="geometry" />
        </mxCell>
        <mxCell id="Lpb_8n2XbH4QXblP-eYi-9" value="" style="edgeStyle=orthogonalEdgeStyle;rounded=0;orthogonalLoop=1;jettySize=auto;html=1;" parent="1" source="Lpb_8n2XbH4QXblP-eYi-4" target="Lpb_8n2XbH4QXblP-eYi-5" edge="1">
          <mxGeometry relative="1" as="geometry" />
        </mxCell>
        <mxCell id="Lpb_8n2XbH4QXblP-eYi-4" value="Show Output" style="shape=card;whiteSpace=wrap;html=1;" parent="1" vertex="1">
          <mxGeometry x="310" y="690" width="140" height="50" as="geometry" />
        </mxCell>
        <mxCell id="Lpb_8n2XbH4QXblP-eYi-5" value="End" style="ellipse;whiteSpace=wrap;html=1;" parent="1" vertex="1">
          <mxGeometry x="320" y="790" width="120" height="60" as="geometry" />
        </mxCell>
        <mxCell id="Lpb_8n2XbH4QXblP-eYi-28" style="edgeStyle=orthogonalEdgeStyle;rounded=0;orthogonalLoop=1;jettySize=auto;html=1;exitX=1;exitY=0.5;exitDx=0;exitDy=0;entryX=1;entryY=0.25;entryDx=0;entryDy=0;" parent="1" source="Lpb_8n2XbH4QXblP-eYi-10" target="Lpb_8n2XbH4QXblP-eYi-23" edge="1">
          <mxGeometry relative="1" as="geometry" />
        </mxCell>
        <mxCell id="Lpb_8n2XbH4QXblP-eYi-10" value="number or decimal" style="rounded=1;whiteSpace=wrap;html=1;" parent="1" vertex="1">
          <mxGeometry x="520" y="220" width="120" height="60" as="geometry" />
        </mxCell>
        <mxCell id="Lpb_8n2XbH4QXblP-eYi-16" value="" style="edgeStyle=orthogonalEdgeStyle;rounded=0;orthogonalLoop=1;jettySize=auto;html=1;" parent="1" source="Lpb_8n2XbH4QXblP-eYi-13" target="Lpb_8n2XbH4QXblP-eYi-14" edge="1">
          <mxGeometry relative="1" as="geometry" />
        </mxCell>
        <mxCell id="Lpb_8n2XbH4QXblP-eYi-19" value="" style="edgeStyle=orthogonalEdgeStyle;rounded=0;orthogonalLoop=1;jettySize=auto;html=1;" parent="1" source="Lpb_8n2XbH4QXblP-eYi-13" edge="1">
          <mxGeometry relative="1" as="geometry">
            <mxPoint x="520" y="380" as="targetPoint" />
          </mxGeometry>
        </mxCell>
        <mxCell id="Lpb_8n2XbH4QXblP-eYi-13" value="basic calculation" style="rhombus;whiteSpace=wrap;html=1;" parent="1" vertex="1">
          <mxGeometry x="340" y="340" width="80" height="80" as="geometry" />
        </mxCell>
        <mxCell id="Lpb_8n2XbH4QXblP-eYi-22" value="" style="edgeStyle=orthogonalEdgeStyle;rounded=0;orthogonalLoop=1;jettySize=auto;html=1;" parent="1" source="Lpb_8n2XbH4QXblP-eYi-14" target="Lpb_8n2XbH4QXblP-eYi-21" edge="1">
          <mxGeometry relative="1" as="geometry" />
        </mxCell>
        <mxCell id="Lpb_8n2XbH4QXblP-eYi-25" value="" style="edgeStyle=orthogonalEdgeStyle;rounded=0;orthogonalLoop=1;jettySize=auto;html=1;" parent="1" source="Lpb_8n2XbH4QXblP-eYi-14" target="Lpb_8n2XbH4QXblP-eYi-23" edge="1">
          <mxGeometry relative="1" as="geometry" />
        </mxCell>
        <mxCell id="Lpb_8n2XbH4QXblP-eYi-14" value="scientific&amp;nbsp;&lt;div&gt;calculation&lt;/div&gt;" style="rhombus;whiteSpace=wrap;html=1;" parent="1" vertex="1">
          <mxGeometry x="335" y="460" width="90" height="80" as="geometry" />
        </mxCell>
        <mxCell id="Lpb_8n2XbH4QXblP-eYi-26" style="edgeStyle=orthogonalEdgeStyle;rounded=0;orthogonalLoop=1;jettySize=auto;html=1;exitX=1;exitY=0.5;exitDx=0;exitDy=0;entryX=1;entryY=0.5;entryDx=0;entryDy=0;" parent="1" source="Lpb_8n2XbH4QXblP-eYi-20" target="Lpb_8n2XbH4QXblP-eYi-23" edge="1">
          <mxGeometry relative="1" as="geometry" />
        </mxCell>
        <mxCell id="Lpb_8n2XbH4QXblP-eYi-20" value="BODMAS" style="rounded=1;whiteSpace=wrap;html=1;" parent="1" vertex="1">
          <mxGeometry x="520" y="350" width="120" height="60" as="geometry" />
        </mxCell>
        <mxCell id="Lpb_8n2XbH4QXblP-eYi-27" style="edgeStyle=orthogonalEdgeStyle;rounded=0;orthogonalLoop=1;jettySize=auto;html=1;exitX=1;exitY=0.5;exitDx=0;exitDy=0;entryX=1;entryY=0.75;entryDx=0;entryDy=0;" parent="1" source="Lpb_8n2XbH4QXblP-eYi-21" target="Lpb_8n2XbH4QXblP-eYi-23" edge="1">
          <mxGeometry relative="1" as="geometry" />
        </mxCell>
        <mxCell id="Lpb_8n2XbH4QXblP-eYi-21" value="mathematics function&lt;div&gt;(trignometric,profit,&lt;/div&gt;&lt;div&gt;loss&amp;nbsp;&lt;span style=&quot;background-color: transparent; color: light-dark(rgb(0, 0, 0), rgb(255, 255, 255));&quot;&gt;etc.)&lt;/span&gt;&lt;/div&gt;" style="rounded=1;whiteSpace=wrap;html=1;" parent="1" vertex="1">
          <mxGeometry x="520" y="470" width="120" height="60" as="geometry" />
        </mxCell>
        <mxCell id="Lpb_8n2XbH4QXblP-eYi-24" value="" style="edgeStyle=orthogonalEdgeStyle;rounded=0;orthogonalLoop=1;jettySize=auto;html=1;" parent="1" source="Lpb_8n2XbH4QXblP-eYi-23" target="Lpb_8n2XbH4QXblP-eYi-4" edge="1">
          <mxGeometry relative="1" as="geometry" />
        </mxCell>
        <mxCell id="Lpb_8n2XbH4QXblP-eYi-23" value="Perform&lt;div&gt;Calculations&lt;/div&gt;" style="rounded=1;whiteSpace=wrap;html=1;" parent="1" vertex="1">
          <mxGeometry x="320" y="590" width="120" height="60" as="geometry" />
        </mxCell>
      </root>
    </mxGraphModel>
  </diagram>
</mxfile>
